<?xml version="1.0" encoding="UTF-8"?>
<svg xmlns="http://www.w3.org/2000/svg"
     xmlns:xlink="http://www.w3.org/1999/xlink"
     xmlns:gadfly="http://www.gadflyjl.org/ns"
     version="1.2"
     width="184.94mm" height="114.3mm" viewBox="0 0 184.94 114.3"
     stroke="none"
     fill="#000000"
     stroke-width="0.3"
     font-size="3.88"
>
<g class="plotroot xscalable yscalable" id="img-22ef7acd-1">
  <g font-size="3.88" font-family="'PT Sans','Helvetica Neue','Helvetica',sans-serif" fill="#564A55" stroke="#000000" stroke-opacity="0.000" id="img-22ef7acd-2">
    <g transform="translate(92.47,102.69)">
      <g class="primitive">
        <text text-anchor="middle" dy="0.6em">Weights in Kilograms</text>
      </g>
    </g>
  </g>
  <g class="guide xlabels" font-size="2.82" font-family="'PT Sans Caption','Helvetica Neue','Helvetica',sans-serif" fill="#6C606B" id="img-22ef7acd-3">
    <g transform="translate(7,96.02)">
      <g class="primitive">
        <text text-anchor="middle" dy="0.6em">42.00</text>
      </g>
    </g>
    <g transform="translate(49.74,96.02)">
      <g class="primitive">
        <text text-anchor="middle" dy="0.6em">45.25</text>
      </g>
    </g>
    <g transform="translate(92.47,96.02)">
      <g class="primitive">
        <text text-anchor="middle" dy="0.6em">48.50</text>
      </g>
    </g>
    <g transform="translate(135.21,96.02)">
      <g class="primitive">
        <text text-anchor="middle" dy="0.6em">51.75</text>
      </g>
    </g>
    <g transform="translate(177.94,96.02)">
      <g class="primitive">
        <text text-anchor="middle" dy="0.6em">55.00</text>
      </g>
    </g>
  </g>
  <g clip-path="url(#img-22ef7acd-4)">
    <g id="img-22ef7acd-5">
      <g pointer-events="visible" opacity="1" fill="#000000" fill-opacity="0.000" stroke="#000000" stroke-opacity="0.000" class="guide background" id="img-22ef7acd-6">
        <g transform="translate(92.47,50.01)">
          <path d="M-87.47,-45.01 L 87.47 -45.01 87.47 45.01 -87.47 45.01 z" class="primitive"/>
        </g>
      </g>
      <g class="guide ygridlines xfixed" stroke-dasharray="0.5,0.5" stroke-width="0.2" stroke="#D0D0E0" id="img-22ef7acd-7">
        <g transform="translate(92.47,93.02)">
          <path fill="none" d="M-87.47,0 L 87.47 0" class="primitive"/>
        </g>
        <g transform="translate(92.47,71.51)">
          <path fill="none" d="M-87.47,0 L 87.47 0" class="primitive"/>
        </g>
        <g transform="translate(92.47,50.01)">
          <path fill="none" d="M-87.47,0 L 87.47 0" class="primitive"/>
        </g>
        <g transform="translate(92.47,28.5)">
          <path fill="none" d="M-87.47,0 L 87.47 0" class="primitive"/>
        </g>
        <g transform="translate(92.47,7)">
          <path fill="none" d="M-87.47,0 L 87.47 0" class="primitive"/>
        </g>
      </g>
      <g class="guide xgridlines yfixed" stroke-dasharray="0.5,0.5" stroke-width="0.2" stroke="#D0D0E0" id="img-22ef7acd-8">
        <g transform="translate(7,50.01)">
          <path fill="none" d="M0,-45.01 L 0 45.01" class="primitive"/>
        </g>
        <g transform="translate(49.74,50.01)">
          <path fill="none" d="M0,-45.01 L 0 45.01" class="primitive"/>
        </g>
        <g transform="translate(92.47,50.01)">
          <path fill="none" d="M0,-45.01 L 0 45.01" class="primitive"/>
        </g>
        <g transform="translate(135.21,50.01)">
          <path fill="none" d="M0,-45.01 L 0 45.01" class="primitive"/>
        </g>
        <g transform="translate(177.94,50.01)">
          <path fill="none" d="M0,-45.01 L 0 45.01" class="primitive"/>
        </g>
      </g>
      <g class="plotpanel" id="img-22ef7acd-9">
        <metadata>
          <boundingbox value="5.0mm 5.0mm 174.94120999999998mm 90.015mm"/>
          <unitbox value="41.84790092453423 0.20465035168284604 13.30419815093154 -0.20930070336569206"/>
        </metadata>
        <g shape-rendering="crispEdges" stroke-width="0.3" id="img-22ef7acd-10">
          <g stroke="#000000" stroke-opacity="0.000" class="geometry" fill="#21ABCD" id="img-22ef7acd-11">
            <g transform="translate(21.6,89.27)">
              <path d="M-5.05,-3.75 L 5.05 -3.75 5.05 3.75 -5.05 3.75 z" class="primitive"/>
            </g>
            <g transform="translate(31.66,85.52)">
              <path d="M-5.05,-7.5 L 5.05 -7.5 5.05 7.5 -5.05 7.5 z" class="primitive"/>
            </g>
            <g transform="translate(41.71,84.58)">
              <path d="M-5.05,-8.44 L 5.05 -8.44 5.05 8.44 -5.05 8.44 z" class="primitive"/>
            </g>
            <g transform="translate(51.77,74.27)">
              <path d="M-5.05,-18.75 L 5.05 -18.75 5.05 18.75 -5.05 18.75 z" class="primitive"/>
            </g>
            <g transform="translate(61.82,59.27)">
              <path d="M-5.05,-33.75 L 5.05 -33.75 5.05 33.75 -5.05 33.75 z" class="primitive"/>
            </g>
            <g transform="translate(71.88,50.83)">
              <path d="M-5.05,-42.18 L 5.05 -42.18 5.05 42.18 -5.05 42.18 z" class="primitive"/>
            </g>
            <g transform="translate(81.93,55.52)">
              <path d="M-5.05,-37.5 L 5.05 -37.5 5.05 37.5 -5.05 37.5 z" class="primitive"/>
            </g>
            <g transform="translate(91.99,61.14)">
              <path d="M-5.05,-31.87 L 5.05 -31.87 5.05 31.87 -5.05 31.87 z" class="primitive"/>
            </g>
            <g transform="translate(102.04,54.58)">
              <path d="M-5.05,-38.43 L 5.05 -38.43 5.05 38.43 -5.05 38.43 z" class="primitive"/>
            </g>
            <g transform="translate(112.1,74.27)">
              <path d="M-5.05,-18.75 L 5.05 -18.75 5.05 18.75 -5.05 18.75 z" class="primitive"/>
            </g>
            <g transform="translate(122.15,73.33)">
              <path d="M-5.05,-19.69 L 5.05 -19.69 5.05 19.69 -5.05 19.69 z" class="primitive"/>
            </g>
            <g transform="translate(132.2,82.7)">
              <path d="M-5.05,-10.31 L 5.05 -10.31 5.05 10.31 -5.05 10.31 z" class="primitive"/>
            </g>
            <g transform="translate(142.26,90.2)">
              <path d="M-5.05,-2.81 L 5.05 -2.81 5.05 2.81 -5.05 2.81 z" class="primitive"/>
            </g>
            <g transform="translate(152.31,87.39)">
              <path d="M-5.05,-5.62 L 5.05 -5.62 5.05 5.62 -5.05 5.62 z" class="primitive"/>
            </g>
            <g transform="translate(162.37,91.14)">
              <path d="M-5.05,-1.87 L 5.05 -1.87 5.05 1.87 -5.05 1.87 z" class="primitive"/>
            </g>
          </g>
        </g>
        <g stroke-width="1" fill="#000000" fill-opacity="0.000" class="geometry" id="img-22ef7acd-12">
          <g stroke-dasharray="none" stroke="#734F96" id="img-22ef7acd-13">
            <g transform="translate(91.99,66.83)">
              <path fill="none" d="M-107.57,26.18 L -106.72 26.18 -105.88 26.18 -105.04 26.18 -104.19 26.18 -103.35 26.18 -102.5 26.18 -101.66 26.18 -100.82 26.17 -99.97 26.17 -99.13 26.17 -98.29 26.16 -97.44 26.15 -96.6 26.14 -95.75 26.12 -94.91 26.1 -94.07 26.08 -93.22 26.05 -92.38 26.01 -91.54 25.96 -90.69 25.91 -89.85 25.84 -89.01 25.76 -88.16 25.67 -87.32 25.57 -86.47 25.45 -85.63 25.31 -84.79 25.16 -83.94 24.99 -83.1 24.81 -82.26 24.6 -81.41 24.39 -80.57 24.15 -79.73 23.9 -78.88 23.63 -78.04 23.35 -77.19 23.04 -76.35 22.73 -75.51 22.39 -74.66 22.04 -73.82 21.66 -72.98 21.27 -72.13 20.86 -71.29 20.43 -70.45 19.97 -69.6 19.49 -68.76 18.99 -67.91 18.46 -67.07 17.92 -66.23 17.35 -65.38 16.76 -64.54 16.15 -63.7 15.52 -62.85 14.88 -62.01 14.22 -61.17 13.54 -60.32 12.85 -59.48 12.14 -58.63 11.42 -57.79 10.67 -56.95 9.9 -56.1 9.11 -55.26 8.3 -54.42 7.45 -53.57 6.56 -52.73 5.64 -51.88 4.68 -51.04 3.68 -50.2 2.64 -49.35 1.55 -48.51 0.42 -47.67 -0.76 -46.82 -1.99 -45.98 -3.26 -45.14 -4.57 -44.29 -5.94 -43.45 -7.36 -42.6 -8.83 -41.76 -10.35 -40.92 -11.93 -40.07 -13.57 -39.23 -15.27 -38.39 -17.03 -37.54 -18.84 -36.7 -20.71 -35.86 -22.64 -35.01 -24.6 -34.17 -26.6 -33.32 -28.63 -32.48 -30.67 -31.64 -32.7 -30.79 -34.72 -29.95 -36.7 -29.11 -38.63 -28.26 -40.49 -27.42 -42.26 -26.58 -43.92 -25.73 -45.47 -24.89 -46.88 -24.04 -48.14 -23.2 -49.25 -22.36 -50.2 -21.51 -50.99 -20.67 -51.6 -19.83 -52.06 -18.98 -52.36 -18.14 -52.51 -17.29 -52.52 -16.45 -52.41 -15.61 -52.18 -14.76 -51.86 -13.92 -51.47 -13.08 -51.01 -12.23 -50.5 -11.39 -49.96 -10.55 -49.41 -9.7 -48.84 -8.86 -48.29 -8.01 -47.75 -7.17 -47.23 -6.33 -46.75 -5.48 -46.29 -4.64 -45.86 -3.8 -45.47 -2.95 -45.11 -2.11 -44.77 -1.27 -44.45 -0.42 -44.13 0.42 -43.82 1.27 -43.49 2.11 -43.14 2.95 -42.76 3.8 -42.33 4.64 -41.83 5.48 -41.27 6.33 -40.63 7.17 -39.91 8.01 -39.1 8.86 -38.19 9.7 -37.2 10.55 -36.12 11.39 -34.95 12.23 -33.72 13.08 -32.41 13.92 -31.06 14.76 -29.66 15.61 -28.24 16.45 -26.81 17.29 -25.37 18.14 -23.95 18.98 -22.56 19.83 -21.2 20.67 -19.89 21.51 -18.63 22.36 -17.42 23.2 -16.28 24.04 -15.19 24.89 -14.16 25.73 -13.18 26.58 -12.24 27.42 -11.34 28.26 -10.47 29.11 -9.6 29.95 -8.74 30.79 -7.88 31.64 -6.99 32.48 -6.07 33.32 -5.11 34.17 -4.12 35.01 -3.07 35.86 -1.98 36.7 -0.85 37.54 0.33 38.39 1.53 39.23 2.75 40.07 3.99 40.92 5.22 41.76 6.43 42.6 7.61 43.45 8.74 44.29 9.82 45.14 10.83 45.98 11.76 46.82 12.61 47.67 13.38 48.51 14.05 49.35 14.65 50.2 15.16 51.04 15.6 51.88 15.97 52.73 16.28 53.57 16.55 54.42 16.79 55.26 17 56.1 17.2 56.95 17.4 57.79 17.6 58.63 17.82 59.48 18.05 60.32 18.29 61.17 18.56 62.01 18.85 62.85 19.16 63.7 19.47 64.54 19.8 65.38 20.13 66.23 20.47 67.07 20.8 67.91 21.12 68.76 21.43 69.6 21.72 70.45 22.01 71.29 22.27 72.13 22.53 72.98 22.76 73.82 22.99 74.66 23.2 75.51 23.41 76.35 23.61 77.19 23.8 78.04 23.98 78.88 24.16 79.73 24.34 80.57 24.51 81.41 24.67 82.26 24.83 83.1 24.98 83.94 25.13 84.79 25.26 85.63 25.38 86.47 25.5 87.32 25.6 88.16 25.69 89.01 25.78 89.85 25.85 90.69 25.91 91.54 25.96 92.38 26.01 93.22 26.04 94.07 26.07 94.91 26.1 95.75 26.12 96.6 26.14 97.44 26.15 98.29 26.16 99.13 26.16 99.97 26.17 100.82 26.17 101.66 26.18 102.5 26.18 103.35 26.18 104.19 26.18 105.04 26.18 105.88 26.18 106.72 26.18 107.57 26.18" class="primitive"/>
            </g>
          </g>
        </g>
        <g class="yfixed" id="img-22ef7acd-14">
          <g stroke-dasharray="none" stroke-width="0.5" stroke="#FF2052" id="img-22ef7acd-15">
            <g transform="translate(85.91,50.01)">
              <path fill="none" d="M0,-45.01 L 0 45.01" class="primitive"/>
            </g>
          </g>
        </g>
      </g>
    </g>
  </g>
</g>
<defs>
  <clipPath id="img-22ef7acd-4">
    <path d="M5,5 L 179.94 5 179.94 95.02 5 95.02" />
  </clipPath>
</defs>
</svg>
